<?xml version="1.0" standalone="no"?>
<!DOCTYPE svg PUBLIC "-//W3C//DTD SVG 1.1//EN" "http://www.w3.org/Graphics/SVG/1.1/DTD/svg11.dtd" >
<svg xmlns="http://www.w3.org/2000/svg" xmlns:xlink="http://www.w3.org/1999/xlink" version="1.1">
<metadata>
Created by FontForge 20150318 at Fri Apr 10 14:49:23 2015
 By uniteet7
Copyright \(c\) 2014 by Igor Kuznetsov for Studio Design Klimov. All rights reserved.
</metadata>
<defs>
<font id="Arkhip" horiz-adv-x="219" >
  <font-face 
    font-family="Arkhip"
    font-weight="400"
    font-stretch="normal"
    units-per-em="1000"
    panose-1="0 0 0 0 0 0 0 0 0 0"
    ascent="751"
    descent="-249"
    x-height="518"
    cap-height="746"
    bbox="0 -249 1477 946"
    underline-thickness="50"
    underline-position="-49"
    stemh="19"
    stemv="109"
    unicode-range="U+0020-2122"
  />
<missing-glyph horiz-adv-x="540" 
 />
    <glyph glyph-name=".notdef" horiz-adv-x="540" 
 />
    <glyph glyph-name="space" unicode=" " horiz-adv-x="271" 
 />
    <glyph glyph-name="exclam" unicode="!" horiz-adv-x="339" 
d="M211 196h-75c-3 183 -9 367 -15 550h105c-6 -183 -12 -367 -15 -550zM113 59c0 -33 26 -59 59 -59s60 26 60 59s-27 60 -60 60s-59 -27 -59 -60z" />
    <glyph glyph-name="quotedbl" unicode="&#x22;" horiz-adv-x="400" 
d="M174 759l-23 -241h-69l-22 241h114zM340 759l-24 -241h-69l-21 241h114z" />
    <glyph glyph-name="numbersign" unicode="#" horiz-adv-x="821" 
d="M526 459h-176l-24 -152h175zM801 549l-10 -90h-165l-24 -152h164l-12 -88h-164l-35 -219h-101l35 219h-174l-37 -219h-100l35 219h-163l11 88h163l26 152h-162l10 90h163l32 202h100l-31 -202h175l31 202h101l-31 -202h163z" />
    <glyph glyph-name="dollar" unicode="$" horiz-adv-x="740" 
d="M203 535c0 -42 27 -81 134 -86v207c-75 -8 -134 -62 -134 -121zM578 227c0 87 -66 107 -145 112v-239c80 15 145 56 145 127zM337 767v65h96v-70c82 -12 155 -46 224 -112l-68 -80c-57 46 -101 70 -156 80v-203c202 -14 257 -93 257 -220c0 -129 -107 -217 -257 -237v-70
h-96v65c-108 6 -217 59 -287 151l78 73c36 -44 103 -108 209 -116v248c-165 5 -255 71 -255 193c0 116 105 224 255 233z" />
    <glyph glyph-name="percent" unicode="%" horiz-adv-x="1029" 
d="M890 159c0 78 -66 111 -130 111c-66 0 -131 -36 -131 -113s66 -112 131 -112s130 42 130 114zM979 160c0 -126 -108 -200 -221 -200s-218 73 -218 198c0 127 108 198 220 198c111 0 219 -65 219 -196zM400 514c0 78 -66 111 -130 111c-66 0 -131 -36 -131 -113
s66 -112 131 -112s130 42 130 114zM489 515c0 -126 -108 -201 -221 -201s-218 74 -218 199c0 127 108 198 220 198c111 0 219 -65 219 -196zM846 718l-542 -757h-116l541 757h117z" />
    <glyph glyph-name="ampersand" unicode="&#x26;" horiz-adv-x="870" 
d="M635 654l-68 -80c-48 64 -123 84 -180 84c-66 0 -161 -30 -161 -125c0 -59 49 -94 111 -94h110l-8 -109h-104c-68 0 -149 -34 -149 -123c0 -59 32 -114 164 -114c87 0 184 51 242 113l9 124h-77l9 109h257l-9 -109h-73l-24 -330h-106l6 93c-74 -66 -166 -103 -234 -103
c-190 0 -272 91 -272 215c0 104 56 165 105 200c-43 29 -67 64 -67 118c0 87 53 245 273 245c119 0 198 -55 246 -114z" />
    <glyph glyph-name="quoteright" unicode="&#x2019;" horiz-adv-x="239" 
d="M57 698c0 33 26 60 59 60c44 0 64 -34 64 -71c0 -58 -44 -137 -114 -173l-23 30c46 36 64 62 64 95c-29 4 -50 29 -50 59z" />
    <glyph glyph-name="parenleft" unicode="(" horiz-adv-x="426" 
d="M337 829l51 -63c-86 -62 -207 -222 -207 -395c0 -162 118 -332 202 -395l-66 -59c-145 115 -255 282 -255 457c0 177 113 354 275 455z" />
    <glyph glyph-name="parenright" unicode=")" horiz-adv-x="426" 
d="M388 371c0 -177 -112 -354 -274 -454l-52 63c87 60 207 222 207 394c0 163 -117 330 -201 395l66 60c144 -116 254 -284 254 -458z" />
    <glyph glyph-name="asterisk" unicode="*" horiz-adv-x="437" 
d="M377 636l-67 -53l66 -53l-30 -55l-81 30l-13 -84h-63l-12 84l-85 -32l-32 56l69 54l-67 53l31 55l84 -30l12 86h63l13 -86l80 31z" />
    <glyph glyph-name="plus" unicode="+" horiz-adv-x="595" 
d="M535 321h-191v-188h-93v188h-191v93h191v188h93v-188h191v-93z" />
    <glyph glyph-name="comma" unicode="," 
d="M50 62c0 33 26 60 59 60c44 0 64 -34 64 -71c0 -57 -44 -136 -114 -172l-23 30c46 36 64 62 64 94c-29 4 -50 29 -50 59z" />
    <glyph glyph-name="hyphen" unicode="-" horiz-adv-x="595" 
d="M535 321h-475v93h475v-93z" />
    <glyph glyph-name="period" unicode="." 
d="M50 62c0 33 26 60 59 60s60 -27 60 -60s-27 -59 -60 -59s-59 26 -59 59z" />
    <glyph glyph-name="slash" unicode="/" horiz-adv-x="630" 
d="M579 745l-418 -773h-122l416 773h124z" />
    <glyph glyph-name="zero" unicode="0" horiz-adv-x="768" 
d="M384 -17c-155 0 -314 107 -314 387s159 398 314 398s314 -118 314 -398s-159 -387 -314 -387zM591 370c0 194 -98 288 -207 288s-207 -94 -207 -288s98 -278 207 -278s207 84 207 278z" />
    <glyph glyph-name="one" unicode="1" horiz-adv-x="370" 
d="M260 0h-107v611l-103 -85v137l103 89h107v-752z" />
    <glyph glyph-name="two" unicode="2" horiz-adv-x="699" 
d="M163 568l-70 82c65 61 172 118 267 118c244 0 252 -190 252 -231c0 -39 -9 -158 -191 -265c-122 -71 -181 -94 -222 -163h420v-109h-539v109c50 130 130 163 285 255c133 78 139 149 139 173c0 21 -4 121 -144 121c-64 0 -146 -37 -197 -90z" />
    <glyph glyph-name="three" unicode="3" horiz-adv-x="748" 
d="M154 636v110h467v-110l-185 -177c141 -14 232 -94 232 -220c0 -153 -136 -256 -295 -256c-93 0 -228 52 -293 135l67 93c68 -85 158 -119 226 -119c101 0 187 58 187 147c0 80 -68 115 -172 115h-88v108l179 174h-325z" />
    <glyph glyph-name="four" unicode="4" horiz-adv-x="760" 
d="M459 300v327l-257 -327h257zM639 191h-70v-191h-110v191h-394v109l369 452h135v-452h111z" />
    <glyph glyph-name="five" unicode="5" horiz-adv-x="743" 
d="M368 -17c-93 0 -228 52 -293 135l67 91c68 -85 158 -117 226 -117c101 0 187 58 187 147c0 80 -68 142 -172 142c-116 0 -178 -51 -178 -51l-92 15l75 401h410v-110h-322l-34 -181c28 20 85 34 141 34c168 0 280 -110 280 -250c0 -153 -136 -256 -295 -256z" />
    <glyph glyph-name="six" unicode="6" horiz-adv-x="715" 
d="M536 236c0 91 -61 157 -176 157c-111 0 -170 -69 -170 -157c0 -83 78 -144 170 -144c97 0 176 63 176 144zM604 711l-55 -95c-44 25 -99 42 -153 42c-120 0 -202 -88 -215 -234c44 43 103 76 179 76c170 0 285 -108 285 -264c0 -141 -128 -253 -285 -253
c-119 0 -209 66 -255 149c-35 63 -35 150 -35 219c0 224 93 417 326 417c76 0 147 -21 208 -57z" />
    <glyph glyph-name="seven" unicode="7" horiz-adv-x="663" 
d="M603 638l-327 -638h-130l333 636h-419v110h543v-108z" />
    <glyph glyph-name="eight" unicode="8" horiz-adv-x="719" 
d="M117 561c0 114 108 207 242 207c133 0 242 -93 242 -207c0 -58 -29 -109 -72 -146c71 -43 120 -114 120 -194c0 -132 -132 -238 -290 -238c-159 0 -289 106 -289 238c0 80 47 151 119 194c-44 37 -72 88 -72 146zM180 221c0 -73 79 -129 179 -129c99 0 180 56 180 129
c0 74 -81 135 -180 135c-100 0 -179 -61 -179 -135zM226 561c0 -55 59 -100 133 -100c76 0 133 47 133 100c0 55 -60 97 -133 97c-74 0 -133 -42 -133 -97z" />
    <glyph glyph-name="nine" unicode="9" horiz-adv-x="715" 
d="M179 514c0 -91 61 -157 176 -157c111 0 170 69 170 157c0 83 -78 144 -170 144c-97 0 -176 -63 -176 -144zM111 39l55 95c44 -25 99 -42 153 -42c120 0 202 88 215 234c-44 -43 -103 -76 -179 -76c-170 0 -285 108 -285 264c0 141 128 254 285 254
c119 0 209 -67 255 -150c35 -63 35 -150 35 -219c0 -224 -93 -416 -326 -416c-76 0 -147 20 -208 56z" />
    <glyph glyph-name="colon" unicode=":" 
d="M50 457c0 33 26 60 59 60s60 -27 60 -60s-27 -59 -60 -59s-59 26 -59 59zM50 62c0 33 26 60 59 60s60 -27 60 -60s-27 -59 -60 -59s-59 26 -59 59z" />
    <glyph glyph-name="semicolon" unicode=";" 
d="M50 457c0 33 26 60 59 60s60 -27 60 -60s-27 -59 -60 -59s-59 26 -59 59zM50 62c0 33 26 60 59 60c44 0 64 -34 64 -71c0 -57 -44 -136 -114 -172l-23 30c46 36 64 62 64 94c-29 4 -50 29 -50 59z" />
    <glyph glyph-name="less" unicode="&#x3c;" horiz-adv-x="509" 
d="M459 -30l-389 254v98l389 254v-130l-277 -173l277 -173v-130z" />
    <glyph glyph-name="equal" unicode="=" horiz-adv-x="595" 
d="M535 231h-475v93h475v-93zM535 411h-475v93h475v-93z" />
    <glyph glyph-name="greater" unicode="&#x3e;" horiz-adv-x="509" 
d="M439 224l-389 -254v130l277 173l-277 173v130l389 -254v-98z" />
    <glyph glyph-name="question" unicode="?" horiz-adv-x="609" 
d="M221 42c0 33 26 60 59 60s60 -27 60 -60s-27 -58 -60 -58s-59 25 -59 58zM120 568l-70 82c56 63 133 118 257 118c198 0 252 -132 252 -211c0 -119 -45 -169 -181 -244c-41 -23 -64 -33 -65 -117h-70c-2 25 -6 52 -6 77c0 52 15 100 85 132c80 36 129 70 129 152
c0 34 -28 101 -144 101c-91 0 -136 -37 -187 -90z" />
    <glyph glyph-name="at" unicode="@" horiz-adv-x="1020" 
d="M529 350h-18c-67 0 -99 -2 -99 -41c0 -28 28 -41 100 -41c30 0 104 7 104 102c-26 -18 -62 -20 -87 -20zM418 459l-76 40c51 61 110 69 170 69c136 0 175 -107 175 -174v-59c0 -40 21 -68 72 -68c56 0 102 68 102 152c0 157 -162 262 -350 262
c-175 0 -349 -116 -349 -301c0 -195 166 -311 347 -311c81 0 131 21 158 42l57 -75c-37 -24 -103 -53 -214 -53c-222 0 -440 143 -440 387c0 262 197 398 441 398c242 0 439 -113 439 -350c0 -133 -101 -232 -191 -232c-76 0 -113 23 -135 47c-16 -29 -67 -46 -113 -46
c-121 0 -190 37 -190 124c0 95 75 119 175 119c17 0 35 -2 52 -2c30 0 45 6 47 17c0 20 -29 49 -83 49c-42 0 -71 -9 -94 -35z" />
    <glyph glyph-name="A" unicode="A" horiz-adv-x="811" 
d="M343 667l-41 92h120l359 -759h-122l-49 109h-227c-136 0 -209 -43 -226 -74l-19 -35h-118zM423 219h138l-163 315l-165 -357c27 23 88 42 190 42z" />
    <glyph glyph-name="B" unicode="B" horiz-adv-x="814" 
d="M218 636v-228c45 26 93 30 142 30h128c67 0 111 34 111 103c0 71 -46 95 -111 95h-270zM218 297v-188h281c61 0 137 34 137 109c0 87 -76 109 -148 109h-128c-48 0 -97 -6 -142 -30zM744 204c0 -148 -132 -204 -256 -204h-378v746h378c126 0 220 -73 220 -204
c0 -64 -23 -119 -67 -147c52 -24 103 -88 103 -191z" />
    <glyph glyph-name="C" unicode="C" horiz-adv-x="816" 
d="M749 650l-70 -82c-54 56 -133 90 -218 90c-166 0 -294 -119 -294 -287c0 -161 139 -279 295 -279c97 0 183 45 237 117l67 -91c-75 -84 -185 -135 -305 -135c-226 0 -401 176 -401 401c0 220 188 384 402 384c112 0 214 -45 287 -118z" />
    <glyph glyph-name="D" unicode="D" horiz-adv-x="837" 
d="M259 636v-527h169c145 0 239 120 239 259c0 144 -87 268 -241 268h-167zM93 636l-48 110h380c203 0 352 -168 352 -370c0 -101 -42 -204 -111 -277c-68 -73 -139 -99 -238 -99h-276v636h-59z" />
    <glyph glyph-name="E" unicode="E" horiz-adv-x="744" 
d="M219 299v-190h460v-109h-569v746h525v-110h-416v-226c45 26 92 29 141 29h163v-111h-163c-48 0 -96 -5 -141 -29z" />
    <glyph glyph-name="F" unicode="F" horiz-adv-x="695" 
d="M219 299v-299h-109v746h525v-110h-416v-226c45 26 92 29 141 29h163v-111h-163c-48 0 -96 -5 -141 -29z" />
    <glyph glyph-name="G" unicode="G" horiz-adv-x="841" 
d="M749 650l-70 -82c-54 56 -133 90 -218 90c-166 0 -294 -119 -294 -287c0 -161 139 -279 295 -279c75 0 144 27 196 72v136h-96l-47 108h251v-290c-75 -84 -185 -135 -305 -135c-226 0 -401 176 -401 401c0 220 188 384 402 384c112 0 214 -45 287 -118z" />
    <glyph glyph-name="H" unicode="H" horiz-adv-x="876" 
d="M218 330v-330h-108v746h108v-306c30 15 63 20 95 20c44 0 175 -22 243 -22c31 0 69 5 101 19v289h109v-746h-109v347c-32 -14 -70 -19 -101 -19c-68 0 -199 22 -243 22c-32 0 -65 -5 -95 -20z" />
    <glyph glyph-name="I" unicode="I" horiz-adv-x="327" 
d="M217 0h-107v746h107v-746z" />
    <glyph glyph-name="J" unicode="J" horiz-adv-x="675" 
d="M565 746v-451c0 -230 -164 -312 -291 -312c-88 0 -191 33 -254 88l55 96s63 -76 200 -76c183 0 182 207 182 207v338h-159l-48 110h315z" />
    <glyph glyph-name="K" unicode="K" horiz-adv-x="825" 
d="M420 299l-201 -299h-109v746h109v-557l379 557h131l-245 -351l134 -201c46 -70 84 -84 116 -84h7l24 1v-111c-87 0 -150 -12 -232 118z" />
    <glyph glyph-name="L" unicode="L" horiz-adv-x="653" 
d="M633 0h-523v746h109v-637h414v-109z" />
    <glyph glyph-name="M" unicode="M" horiz-adv-x="986" 
d="M747 513l-255 -305l-253 305v-513h-107v641l-87 105h141l305 -366l309 366h141l-87 -105v-641h-107v513z" />
    <glyph glyph-name="N" unicode="N" horiz-adv-x="885" 
d="M132 641l-87 105h141l479 -570v570h110v-746h-108l-428 513v-513h-107v641z" />
    <glyph glyph-name="O" unicode="O" horiz-adv-x="923" 
d="M755 378c0 164 -135 280 -294 280c-166 0 -294 -119 -294 -287c0 -161 139 -279 295 -279c160 0 293 124 293 286zM863 372c0 -220 -186 -389 -402 -389c-226 0 -401 176 -401 401c0 220 188 384 402 384c221 0 401 -173 401 -396z" />
    <glyph glyph-name="P" unicode="P" horiz-adv-x="761" 
d="M361 427h132c71 0 110 34 110 106c0 75 -38 104 -110 104h-274v-240c45 26 93 30 142 30zM219 0h-109v746h383c132 0 218 -80 218 -213c0 -132 -86 -216 -218 -216h-132c-48 0 -97 -6 -142 -30v-287z" />
    <glyph glyph-name="Q" unicode="Q" horiz-adv-x="939" 
d="M435 187l55 95c66 -4 91 -26 188 -98c47 50 77 118 77 194c0 164 -135 280 -294 280c-166 0 -294 -119 -294 -287c0 -161 139 -279 295 -279c43 0 84 9 122 26c-63 47 -93 66 -149 69zM863 372c0 -97 -37 -184 -96 -252c29 -18 70 -39 112 -42l-55 -95
c-57 6 -99 32 -143 63c-64 -41 -140 -63 -220 -63c-226 0 -401 176 -401 401c0 220 188 384 402 384c221 0 401 -173 401 -396z" />
    <glyph glyph-name="R" unicode="R" horiz-adv-x="840" 
d="M219 637v-248c45 26 92 29 141 29h142c75 0 127 34 127 114c0 78 -56 105 -127 105h-283zM538 118l-91 191h-87c-48 0 -96 -5 -141 -29v-280h-109v746h392c136 0 235 -79 235 -220c0 -113 -64 -186 -172 -213l58 -119c47 -69 64 -84 112 -84h11l24 1v-111
c-87 0 -175 0 -232 118z" />
    <glyph glyph-name="S" unicode="S" horiz-adv-x="740" 
d="M690 227c0 -150 -144 -244 -333 -244c-114 0 -232 56 -307 153l78 73c39 -47 112 -117 229 -117c110 0 221 42 221 135c0 114 -113 114 -221 114c-178 0 -275 66 -275 193c0 121 115 234 275 234c113 0 211 -32 300 -118l-68 -80c-80 65 -137 88 -232 88
c-84 0 -154 -58 -154 -123c0 -45 32 -86 159 -86c261 0 328 -81 328 -222z" />
    <glyph glyph-name="T" unicode="T" horiz-adv-x="695" 
d="M665 636h-263v-636h-106v636h-266v110h635v-110z" />
    <glyph glyph-name="U" unicode="U" horiz-adv-x="870" 
d="M435 -17c-211 0 -335 113 -335 307v456h108v-456c0 -128 82 -198 227 -198s227 70 227 198v456h108v-456c0 -194 -124 -307 -335 -307z" />
    <glyph glyph-name="V" unicode="V" horiz-adv-x="810" 
d="M780 746l-313 -746h-129l-308 746h118l255 -624l257 624h120z" />
    <glyph glyph-name="W" unicode="W" horiz-adv-x="1081" 
d="M931 746h115l-238 -746h-118l-144 441l-140 -441h-118l-253 746h112l198 -558l140 440l-38 118h112l188 -558z" />
    <glyph glyph-name="X" unicode="X" horiz-adv-x="823" 
d="M783 0h-138l-229 314l-237 -314h-139l306 405l-246 341h132l184 -249l187 249h135l-253 -341z" />
    <glyph glyph-name="Y" unicode="Y" horiz-adv-x="714" 
d="M357 418c90 94 165 213 207 328h125c-71 -166 -167 -302 -278 -423v-323h-108v323c-111 121 -207 257 -278 423h125c42 -115 117 -234 207 -328z" />
    <glyph glyph-name="Z" unicode="Z" horiz-adv-x="707" 
d="M657 0h-607v110l420 526h-397v110h547v-106l-434 -531h471v-109z" />
    <glyph glyph-name="bracketleft" unicode="[" horiz-adv-x="527" 
d="M497 -69h-178v877h178v-80h-80v-720h80v-77z" />
    <glyph glyph-name="backslash" unicode="\" horiz-adv-x="630" 
d="M457 -28l-418 773h124l416 -773h-122z" />
    <glyph glyph-name="bracketright" unicode="]" horiz-adv-x="258" 
d="M208 -69h-178v77h80v720h-80v80h178v-877z" />
    <glyph glyph-name="asciicircum" unicode="^" horiz-adv-x="889" 
d="M676 435h-106l-125 225l-126 -225h-106l187 316h89z" />
    <glyph glyph-name="underscore" unicode="_" horiz-adv-x="700" 
d="M700 -124h-700v89h700v-89z" />
    <glyph glyph-name="quoteleft" unicode="&#x2018;" horiz-adv-x="239" 
d="M177 597c0 -33 -26 -60 -59 -60c-44 0 -64 34 -64 71c0 58 44 137 114 173l23 -30c-46 -36 -64 -62 -64 -95c29 -4 50 -29 50 -59z" />
    <glyph glyph-name="a" unicode="a" horiz-adv-x="675" 
d="M418 172h14l-101 192l-123 -237c33 17 103 45 210 45zM278 465l-34 65h111l280 -530h-113l-41 78h-62c-128 0 -261 -50 -278 -72l-3 -6h-108z" />
    <glyph glyph-name="b" unicode="b" horiz-adv-x="702" 
d="M223 415v-118c45 26 102 30 162 30h53c36 0 52 15 52 45c0 28 -21 43 -52 43h-215zM223 192v-88h215c42 0 81 10 81 60c0 38 -24 58 -81 58h-53c-95 0 -117 -6 -162 -30zM622 162c0 -102 -70 -162 -184 -162h-318v518h318c85 0 157 -59 157 -146c0 -34 -9 -66 -34 -89
c39 -23 61 -70 61 -121z" />
    <glyph glyph-name="c" unicode="c" horiz-adv-x="648" 
d="M528 144l60 -86c-57 -49 -134 -74 -213 -74c-157 0 -305 102 -305 277c0 176 151 274 306 274c76 0 151 -22 208 -65l-69 -80c-39 27 -90 41 -139 41c-100 0 -197 -55 -197 -172s99 -171 198 -171c54 0 111 20 151 56z" />
    <glyph glyph-name="d" unicode="d" horiz-adv-x="708" 
d="M376 415h-103v-311h103c100 0 157 57 157 157c0 101 -57 154 -157 154zM101 415l-46 103h321c156 0 262 -90 262 -255c0 -161 -104 -263 -262 -263h-211v415h-64z" />
    <glyph glyph-name="e" unicode="e" horiz-adv-x="622" 
d="M222 186v-82h325v-104h-427v518h408v-103h-306v-126c45 26 102 30 162 30h76v-103h-76c-95 0 -117 -6 -162 -30z" />
    <glyph glyph-name="f" unicode="f" horiz-adv-x="578" 
d="M222 186v-186h-102v518h388v-103h-286v-126c45 26 102 30 162 30h56v-103h-56c-95 0 -117 -6 -162 -30z" />
    <glyph glyph-name="g" unicode="g" horiz-adv-x="673" 
d="M588 295v-237c-57 -49 -134 -74 -213 -74c-157 0 -305 102 -305 277c0 176 151 274 306 274c76 0 151 -22 208 -65l-69 -80c-39 27 -90 41 -139 41c-100 0 -197 -55 -197 -172s99 -171 198 -171c37 0 75 9 109 27v83h-53l-44 97h199z" />
    <glyph glyph-name="h" unicode="h" horiz-adv-x="726" 
d="M222 206v-206h-102v518h102v-207c19 9 40 13 61 13c43 0 104 -15 156 -15c22 0 44 3 65 13v196h102v-518h-102v217c-20 -10 -40 -13 -61 -13c-54 0 -105 14 -156 14c-23 0 -44 -3 -65 -12z" />
    <glyph glyph-name="i" unicode="i" horiz-adv-x="342" 
d="M222 0h-102v518h102v-518z" />
    <glyph glyph-name="j" unicode="j" horiz-adv-x="545" 
d="M30 23l54 94c18 -17 53 -29 110 -29c66 0 129 31 129 106v221h-124l-46 103h272v-324c0 -140 -108 -210 -239 -210c-44 0 -121 16 -156 39z" />
    <glyph glyph-name="k" unicode="k" horiz-adv-x="698" 
d="M360 200l-131 -200h-109v518h109v-332l239 332h132l-171 -233l76 -128c31 -43 61 -46 87 -46h36v-111h-45c-54 0 -90 7 -151 82z" />
    <glyph glyph-name="l" unicode="l" horiz-adv-x="532" 
d="M502 0h-382v518h107v-414h275v-104z" />
    <glyph glyph-name="m" unicode="m" horiz-adv-x="804" 
d="M749 518l-51 -83v-435h-113v303l-183 -244l-183 244v-303h-113v435l-51 83h126l221 -293l221 293h126z" />
    <glyph glyph-name="n" unicode="n" horiz-adv-x="720" 
d="M55 518h129l313 -360v360h103v-518h-103l-288 337v-337h-103v441z" />
    <glyph glyph-name="o" unicode="o" horiz-adv-x="752" 
d="M574 263c0 116 -100 166 -198 166c-100 0 -198 -53 -198 -170s100 -170 199 -170c98 0 197 62 197 174zM682 264c0 -176 -150 -280 -307 -280s-305 102 -305 277c0 176 151 274 306 274c156 0 306 -91 306 -271z" />
    <glyph glyph-name="p" unicode="p" horiz-adv-x="678" 
d="M222 415v-155c45 26 103 30 163 30h46c49 0 82 9 82 65c0 51 -40 60 -82 60h-209zM222 0h-102v518h329c100 0 169 -64 169 -164c0 -102 -71 -167 -187 -167h-46c-95 0 -118 -6 -163 -30v-157z" />
    <glyph glyph-name="q" unicode="q" horiz-adv-x="752" 
d="M380 123l53 91c40 -4 68 -24 109 -56c24 28 39 63 39 105c0 116 -107 166 -205 166c-100 0 -198 -53 -198 -170s100 -170 199 -170c22 0 45 3 67 10c-1 0 -2 0 -2 1c-20 11 -40 20 -62 23zM682 264c0 -66 -21 -122 -55 -166c17 -9 35 -16 55 -17l-53 -90
c-33 3 -58 17 -86 36c-50 -27 -108 -43 -168 -43c-157 0 -305 102 -305 277c0 176 151 274 306 274c156 0 306 -91 306 -271z" />
    <glyph glyph-name="r" unicode="r" horiz-adv-x="733" 
d="M498 211l32 -54c25 -42 61 -46 87 -46h36v-111h-45c-54 0 -103 4 -151 82l-80 130h-7c-81 0 -103 -8 -145 -30v-182h-105v518h334c95 0 163 -66 163 -156c0 -79 -44 -128 -119 -151zM370 315h84c31 0 58 17 58 50c0 46 -40 50 -76 50h-211v-130c40 22 91 30 145 30z" />
    <glyph glyph-name="s" unicode="s" horiz-adv-x="617" 
d="M517 470l-69 -80c-40 33 -94 45 -154 45c-50 0 -105 -26 -105 -56c0 -31 12 -52 113 -52c221 0 255 -75 255 -159c0 -124 -114 -184 -262 -184c-90 0 -178 43 -235 110l74 75c31 -33 69 -85 161 -85c94 0 160 30 160 84c0 47 -52 57 -160 57c-124 0 -214 41 -214 154
c0 94 99 156 214 156c75 0 146 -13 222 -65z" />
    <glyph glyph-name="t" unicode="t" horiz-adv-x="566" 
d="M526 415h-195v-415h-103v415h-188v103h486v-103z" />
    <glyph glyph-name="u" unicode="u" horiz-adv-x="720" 
d="M361 -16h-2c-144 0 -249 67 -249 219v315h103v-315c0 -88 59 -115 147 -115s147 27 147 115v315h103v-315c0 -152 -105 -219 -249 -219z" />
    <glyph glyph-name="v" unicode="v" horiz-adv-x="667" 
d="M627 518l-229 -518h-133l-225 518h116l175 -413l179 413h117z" />
    <glyph glyph-name="w" unicode="w" horiz-adv-x="845" 
d="M358 383l-42 135h117l118 -380l139 380h110l-182 -518h-139l-65 205l-53 -205h-137l-179 518h111l134 -380z" />
    <glyph glyph-name="x" unicode="x" horiz-adv-x="676" 
d="M339 186l-148 -186h-141l220 274l-191 244h141l122 -156l125 156h137l-194 -243l216 -275h-140z" />
    <glyph glyph-name="y" unicode="y" horiz-adv-x="604" 
d="M569 518l-214 -309v-209h-102v209l-218 309h130l138 -204l142 204h124z" />
    <glyph glyph-name="z" unicode="z" horiz-adv-x="549" 
d="M489 0h-429v104l273 311h-263v103h399v-103l-273 -311h293v-104z" />
    <glyph glyph-name="braceleft" unicode="{" horiz-adv-x="340" 
d="M310 -9v-66c-132 0 -176 38 -176 133v213c0 56 -9 76 -84 76v59c68 0 83 12 83 75v206c0 96 45 134 177 134v-66c-67 0 -85 -14 -85 -66v-193c0 -61 -17 -102 -60 -121c43 -19 59 -57 59 -118v-201c0 -51 19 -65 86 -65z" />
    <glyph glyph-name="bar" unicode="|" horiz-adv-x="372" 
d="M232 -249h-92v999h92v-999z" />
    <glyph glyph-name="braceright" unicode="}" horiz-adv-x="340" 
d="M30 -75v66c67 0 86 14 86 65v201c0 61 16 99 59 118c-43 19 -60 60 -60 121v193c0 52 -18 66 -85 66v66c132 0 177 -38 177 -134v-206c0 -63 15 -75 83 -75v-59c-75 0 -84 -20 -84 -76v-213c0 -95 -44 -133 -176 -133z" />
    <glyph glyph-name="asciitilde" unicode="~" horiz-adv-x="661" 
d="M531 356l60 -72c-32 -35 -78 -85 -148 -85c-94 0 -159 62 -223 62c-31 0 -74 -42 -90 -61l-60 72c35 43 97 86 145 86c83 0 150 -59 222 -59c44 0 71 28 94 57z" />
    <glyph glyph-name="section" unicode="&#xa7;" horiz-adv-x="604" 
d="M434 344c0 32 -21 49 -60 65l-170 69c-16 -11 -30 -27 -30 -50c0 -37 34 -58 77 -74l153 -58c19 11 30 29 30 48zM70 52l70 60c51 -36 97 -50 148 -50c81 0 141 22 141 81c0 36 -35 55 -75 70l-153 58c-67 25 -124 70 -124 154c0 40 26 79 53 100c-23 25 -34 55 -34 91
c0 114 116 153 204 153c68 0 157 -25 213 -79l-76 -53c-43 28 -94 44 -135 44c-67 0 -107 -14 -107 -62c0 -31 29 -54 64 -67l153 -57c65 -24 122 -75 122 -147c0 -44 -28 -75 -55 -95c24 -23 47 -58 47 -109c0 -108 -98 -167 -239 -167c-68 0 -154 21 -217 75z" />
    <glyph glyph-name="currency" unicode="&#xa4;" horiz-adv-x="833" 
 />
    <glyph glyph-name="quotesingle" unicode="'" horiz-adv-x="234" 
d="M174 759l-23 -241h-69l-22 241h114z" />
    <glyph glyph-name="quotedblleft" unicode="&#x201c;" horiz-adv-x="397" 
d="M339 604c0 -33 -26 -60 -59 -60c-44 0 -64 34 -64 71c0 58 44 137 114 173l23 -30c-46 -36 -64 -62 -64 -95c29 -4 50 -29 50 -59zM179 604c0 -33 -26 -60 -59 -60c-44 0 -64 34 -64 71c0 58 44 137 114 173l23 -30c-46 -36 -64 -62 -64 -95c29 -4 50 -29 50 -59z" />
    <glyph glyph-name="guillemotleft" unicode="&#xab;" horiz-adv-x="606" 
d="M304 67h-100l-134 196l134 193h100l-115 -193zM536 67h-100l-134 196l134 193h100l-115 -193z" />
    <glyph glyph-name="guilsinglleft" unicode="&#x2039;" horiz-adv-x="374" 
d="M204 67l-134 196l134 193h100l-115 -193l115 -196h-100z" />
    <glyph glyph-name="guilsinglright" unicode="&#x203a;" horiz-adv-x="374" 
d="M304 263l-134 -196h-100l115 196l-115 193h100z" />
    <glyph glyph-name="endash" unicode="&#x2013;" horiz-adv-x="389" 
d="M389 242h-389v95h389v-95z" />
    <glyph glyph-name="dagger" unicode="&#x2020;" horiz-adv-x="593" 
d="M534 448h-188v-448h-99v448h-189v94h189v203h99v-203h188v-94z" />
    <glyph glyph-name="daggerdbl" unicode="&#x2021;" horiz-adv-x="593" 
d="M534 191h-188v-191h-99v191h-189v94h189v179h-189v94h189v187h99v-187h188v-94h-188v-179h188v-94z" />
    <glyph glyph-name="periodcentered" unicode="&#xb7;" horiz-adv-x="370" 
d="M255 385c0 -39 -31 -72 -70 -72c-40 0 -70 33 -70 72s31 72 70 72c40 0 70 -33 70 -72z" />
    <glyph glyph-name="paragraph" unicode="&#xb6;" horiz-adv-x="752" 
d="M392 650h-50c-98 0 -163 -28 -163 -125s65 -125 163 -125h50v250zM342 750h340v-750h-103v650h-81v-650h-106v300h-50c-145 0 -272 51 -272 223c0 176 127 227 272 227z" />
    <glyph glyph-name="bullet" unicode="&#x2022;" horiz-adv-x="382" 
d="M70 411c0 67 54 121 121 121s121 -54 121 -121s-54 -121 -121 -121s-121 54 -121 121z" />
    <glyph glyph-name="quotesinglbase" unicode="&#x201a;" 
d="M50 62c0 33 26 60 59 60c44 0 64 -34 64 -71c0 -57 -44 -136 -114 -172l-23 30c46 36 64 62 64 94c-29 4 -50 29 -50 59z" />
    <glyph glyph-name="quotedblbase" unicode="&#x201e;" horiz-adv-x="377" 
d="M50 62c0 33 26 60 59 60c44 0 64 -34 64 -71c0 -57 -44 -136 -114 -172l-23 30c46 36 64 62 64 94c-29 4 -50 29 -50 59zM210 62c0 33 26 60 59 60c44 0 64 -34 64 -71c0 -57 -44 -136 -114 -172l-23 30c46 36 64 62 64 94c-29 4 -50 29 -50 59z" />
    <glyph glyph-name="quotedblright" unicode="&#x201d;" horiz-adv-x="397" 
d="M60 699c0 33 26 60 59 60c44 0 64 -34 64 -71c0 -58 -44 -137 -114 -173l-23 30c46 36 64 62 64 95c-29 4 -50 29 -50 59zM220 699c0 33 26 60 59 60c44 0 64 -34 64 -71c0 -58 -44 -137 -114 -173l-23 30c46 36 64 62 64 95c-29 4 -50 29 -50 59z" />
    <glyph glyph-name="guillemotright" unicode="&#xbb;" horiz-adv-x="606" 
d="M305 263l-135 -196h-100l116 196l-116 193h100zM536 263l-134 -196h-100l115 196l-115 193h100z" />
    <glyph glyph-name="ellipsis" unicode="&#x2026;" horiz-adv-x="575" 
d="M50 62c0 33 26 60 59 60s60 -27 60 -60s-27 -59 -60 -59s-59 26 -59 59zM228 62c0 33 26 60 59 60s60 -27 60 -60s-27 -59 -60 -59s-59 26 -59 59zM406 62c0 33 26 60 59 60s60 -27 60 -60s-27 -59 -60 -59s-59 26 -59 59z" />
    <glyph glyph-name="perthousand" unicode="&#x2030;" horiz-adv-x="1522" 
d="M1388 162c0 78 -66 111 -130 111c-66 0 -131 -36 -131 -113s66 -112 131 -112s130 42 130 114zM1477 163c0 -126 -108 -200 -221 -200s-218 73 -218 198c0 127 108 198 220 198c111 0 219 -65 219 -196zM890 159c0 78 -66 111 -130 111c-66 0 -131 -36 -131 -113
s66 -112 131 -112s130 42 130 114zM979 160c0 -126 -108 -200 -221 -200s-218 73 -218 198c0 127 108 198 220 198c111 0 219 -65 219 -196zM400 514c0 78 -66 111 -130 111c-66 0 -131 -36 -131 -113s66 -112 131 -112s130 42 130 114zM489 515c0 -126 -108 -201 -221 -201
s-218 74 -218 199c0 127 108 198 220 198c111 0 219 -65 219 -196zM846 718l-542 -757h-116l541 757h117z" />
    <glyph glyph-name="grave" unicode="`" horiz-adv-x="297" 
d="M156 813l-106 122h117l80 -122h-91z" />
    <glyph glyph-name="emdash" unicode="&#x2014;" horiz-adv-x="1018" 
d="M1018 242h-1018v95h1018v-95z" />
    <glyph glyph-name="logicalnot" unicode="&#xac;" horiz-adv-x="833" 
 />
    <glyph glyph-name="mu" unicode="&#xb5;" horiz-adv-x="700" 
d="M600 0h-97v54c-13 -19 -81 -70 -155 -70c-69 0 -130 35 -145 66v-202h-103v670h103v-315c0 -107 75 -115 147 -115c85 0 148 23 148 115v315h102v-518z" />
    <glyph glyph-name="trademark" unicode="&#x2122;" horiz-adv-x="851" 
d="M781 746l-31 -47v-244h-65v171l-106 -137l-106 137v-171h-65v244l-31 47h72l130 -164l129 164h73zM353 688h-114v-233h-60v233h-109v58h283v-58z" />
    <glyph glyph-name="plusminus" unicode="&#xb1;" horiz-adv-x="615" 
d="M545 -93h-475v93h475v-93zM545 219h-191v-160h-93v160h-191v93h191v156h93v-156h191v-93z" />
    <glyph glyph-name="brokenbar" unicode="&#xa6;" horiz-adv-x="833" 
 />
    <glyph glyph-name="degree" unicode="&#xb0;" horiz-adv-x="387" 
d="M251 644c0 31 -26 58 -58 58s-57 -27 -57 -58c0 -32 26 -57 57 -57s58 25 58 57zM317 645c0 -69 -55 -124 -123 -124c-69 0 -124 55 -124 123c0 69 55 124 123 124c69 0 124 -55 124 -123z" />
    <glyph glyph-name="registered" unicode="&#xae;" horiz-adv-x="919" 
d="M555 342l25 -41c19 -31 47 -35 66 -35h27v-84h-34c-41 0 -79 2 -115 62l-60 99h-6c-61 0 -78 -6 -110 -23v-138h-79v393h253c72 0 124 -50 124 -118c0 -60 -34 -97 -91 -115zM458 421h64c24 0 44 13 44 38c0 35 -30 38 -58 38h-160v-99c31 17 69 23 110 23zM771 372
c0 172 -139 311 -311 311c-173 0 -312 -139 -312 -311s140 -312 311 -312c173 0 312 140 312 312zM849 372c0 -215 -174 -388 -389 -388c-216 0 -390 173 -390 388s174 389 389 389c216 0 390 -174 390 -389z" />
    <glyph glyph-name="copyright" unicode="&#xa9;" horiz-adv-x="919" 
d="M588 286l46 -66c-44 -37 -103 -57 -164 -57c-121 0 -234 79 -234 213c0 136 116 211 235 211c58 0 116 -17 160 -50l-53 -61c-30 20 -69 31 -107 31c-77 0 -152 -42 -152 -132s77 -132 153 -132c41 0 85 16 116 43zM771 372c0 172 -139 311 -311 311
c-173 0 -312 -139 -312 -311s140 -312 311 -312c173 0 312 140 312 312zM849 372c0 -215 -174 -388 -389 -388c-216 0 -390 173 -390 388s174 389 389 389c216 0 390 -174 390 -389z" />
    <glyph glyph-name="Euro" unicode="&#x20ac;" horiz-adv-x="855" 
d="M220 466h404l-14 -73h-403c-1 -7 -1 -15 -1 -22c0 -16 1 -31 3 -45h388l-14 -72h-351c48 -98 154 -162 269 -162c97 0 183 45 237 117l67 -91c-75 -84 -185 -135 -305 -135c-180 0 -328 111 -381 271h-78l14 72h48c-3 19 -4 38 -4 58v9h-59l15 73h53
c40 177 206 302 393 302c112 0 214 -45 287 -118l-70 -82c-54 56 -133 90 -218 90c-133 0 -242 -76 -280 -192z" />
    <glyph glyph-name="uni00AD" unicode="&#xad;" horiz-adv-x="389" 
d="M389 242h-389v95h389v-95z" />
    <glyph glyph-name="_195" unicode="&#x413;" horiz-adv-x="690" 
d="M219 636v-636h-109v746h525v-110h-416z" />
    <glyph glyph-name="_196" unicode="&#x414;" horiz-adv-x="876" 
d="M273 109h379v527h-185c-19 -161 -94 -383 -194 -527zM826 -115h-109v115h-578v-115h-109v224h110c116 142 184 318 218 527h-82l-46 110h531v-637h65v-224z" />
    <glyph glyph-name="_200" unicode="&#x416;" horiz-adv-x="1206" 
d="M548 439v307h109v-307c41 1 83 8 122 29l189 278h131l-245 -351l134 -201c50 -75 89 -84 123 -84c8 0 16 1 24 1l1 -111c-87 0 -151 -12 -233 118l-143 229c-34 -14 -68 -19 -103 -19v-328h-109v328c-35 0 -69 5 -102 19l-144 -229c-82 -129 -150 -118 -232 -118l1 111
c7 0 15 -1 24 -1c33 0 72 8 123 84l134 201l-245 351h131l188 -278c39 -21 80 -28 122 -29z" />
    <glyph glyph-name="_204" unicode="&#x417;" horiz-adv-x="731" 
d="M167 568l-70 82c69 69 131 118 270 118c206 0 268 -144 268 -230c0 -67 -19 -108 -67 -141c65 -38 103 -91 103 -179c0 -121 -82 -235 -304 -235c-117 0 -253 52 -327 135l67 91c54 -72 163 -117 260 -117c146 0 196 59 196 127c0 87 -76 109 -148 109h-124v111h124
c67 0 111 34 111 103c0 82 -94 116 -159 116c-94 0 -142 -31 -200 -90z" />
    <glyph glyph-name="_205" unicode="&#x418;" horiz-adv-x="875" 
d="M218 171l439 575h108v-746h-108v575l-439 -575h-108v746h108v-575z" />
    <glyph glyph-name="_206" unicode="&#x419;" horiz-adv-x="875" 
d="M657 746l-439 -575v575h-108v-746h108l439 575v-575h108v746h-108zM443 871c65 0 77 43 77 75h115c-7 -62 -49 -145 -192 -145s-185 83 -192 145h115c0 -32 12 -75 77 -75z" />
    <glyph glyph-name="_207" unicode="&#x41a;" horiz-adv-x="835" 
d="M219 328v-328h-109v746h109v-307h50c47 0 96 5 140 29l189 278h131l-245 -351l134 -201c50 -75 89 -84 123 -84c8 0 16 1 24 1v-111c-87 0 -150 -12 -232 118l-143 229c-35 -15 -72 -19 -108 -19h-63z" />
    <glyph glyph-name="afii10029" unicode="&#x41b;" horiz-adv-x="837" 
d="M727 0h-109v636h-215c-19 -194 -64 -423 -184 -566c-54 -64 -129 -70 -169 -70h-20v109h20c34 0 75 7 130 95c80 128 102 279 118 432h-86l-47 110h562v-746z" />
    <glyph glyph-name="_213" unicode="&#x41f;" horiz-adv-x="836" 
d="M726 0h-109v636h-399v-636h-108v746h616v-746z" />
    <glyph glyph-name="_217" unicode="&#x423;" horiz-adv-x="770" 
d="M139 746c59 -264 164 -398 274 -528c83 140 159 359 202 528h125c-59 -223 -141 -453 -274 -648c-60 -87 -125 -108 -196 -108c-50 0 -126 21 -153 48l42 95c32 -26 58 -37 111 -37c35 0 63 12 79 41c-144 131 -266 318 -329 609h119z" />
    <glyph glyph-name="_218" unicode="&#x424;" horiz-adv-x="1141" 
d="M786 259c103 0 186 83 186 185c0 103 -83 186 -186 186h-157v-401c47 28 103 30 157 30zM365 259c66 0 112 -4 157 -30v401h-157c-103 0 -186 -83 -186 -186c0 -102 83 -185 186 -185zM786 150c-65 0 -112 -7 -157 -31v-119h-107v119c-52 31 -103 31 -157 31
c-163 0 -305 132 -305 294c0 163 142 295 305 295h157v37h107v-37h157c163 0 295 -132 295 -295c0 -162 -132 -294 -295 -294z" />
    <glyph glyph-name="_220" unicode="&#x426;" horiz-adv-x="921" 
d="M726 109h145l-120 -266h-121l70 157h-590v746h108v-637h399v637h109v-637z" />
    <glyph glyph-name="_221" unicode="&#x427;" horiz-adv-x="751" 
d="M532 746h109v-746h-109v287c-50 -24 -103 -42 -190 -42c-191 0 -292 70 -292 278c0 37 7 158 20 223h109c-13 -83 -20 -170 -20 -253c0 -107 70 -141 187 -141c58 0 113 19 186 45v349z" />
    <glyph glyph-name="_222" unicode="&#x428;" horiz-adv-x="1145" 
d="M1035 0h-925v746h109v-637h299v607h109v-607h299v637h109v-746z" />
    <glyph glyph-name="_224" unicode="&#x429;" horiz-adv-x="1231" 
d="M1035 109h146l-120 -266h-121l70 157h-900v746h109v-637h299v607h109v-607h299v637h109v-637z" />
    <glyph glyph-name="_225" unicode="&#x42a;" horiz-adv-x="913" 
d="M337 109h281c61 0 137 24 137 109c0 87 -76 109 -148 109h-128c-49 0 -97 4 -142 30v-248zM607 0h-378v636h-179v110h287v-278c45 -24 94 -30 142 -30h128c161 0 261 -72 261 -220c0 -178 -143 -218 -261 -218z" />
    <glyph glyph-name="_226" unicode="&#x42b;" horiz-adv-x="1031" 
d="M218 109h251c61 0 137 24 137 109c0 87 -76 109 -148 109h-98c-49 0 -97 4 -142 30v-248zM218 746v-278c45 -24 94 -30 142 -30h98c161 0 261 -72 261 -220c0 -178 -143 -218 -261 -218h-348v746h108zM921 0h-107v746h107v-746z" />
    <glyph glyph-name="_227" unicode="&#x42c;" horiz-adv-x="794" 
d="M488 327h-128c-49 0 -97 4 -142 30v-248h281c61 0 137 24 137 109c0 87 -76 109 -148 109zM488 0h-378v746h108v-278c45 -24 94 -30 142 -30h128c161 0 261 -72 261 -220c0 -178 -143 -218 -261 -218z" />
    <glyph glyph-name="_228" unicode="&#x42d;" horiz-adv-x="816" 
d="M137 568l-70 82c73 73 175 118 287 118c254 0 402 -164 402 -384c0 -225 -175 -401 -401 -401c-120 0 -230 51 -305 135l67 91c54 -72 140 -117 237 -117c133 0 254 86 286 212c-42 21 -89 26 -134 26h-240v111h240c48 0 96 -4 140 -29c-20 146 -110 246 -291 246
c-85 0 -164 -34 -218 -90z" />
    <glyph glyph-name="_229" unicode="&#x42e;" horiz-adv-x="1149" 
d="M985 378c0 164 -130 280 -283 280c-160 0 -283 -112 -283 -280c0 -161 134 -286 284 -286c159 0 282 124 282 286zM1089 378c0 -227 -171 -395 -387 -395c-201 0 -361 150 -383 351h-101v-334h-108v746h108v-302h103c29 193 195 324 382 324c213 0 386 -167 386 -390z
" />
    <glyph glyph-name="_230" unicode="&#x42f;" horiz-adv-x="837" 
d="M618 385v251h-283c-71 0 -127 -41 -127 -105c0 -80 52 -116 127 -116h141c49 0 97 -4 142 -30zM618 0v276c-45 24 -94 30 -142 30h-65l-119 -188c-70 -111 -132 -118 -199 -118h-33v110h25c33 0 71 8 123 84l80 117c-111 16 -188 94 -188 218c0 132 99 217 235 217h392
v-746h-109z" />
    <glyph glyph-name="afii10066" unicode="&#x431;" horiz-adv-x="682" 
d="M223 104h215c42 0 81 10 81 60c0 49 -40 58 -81 58h-53c-60 0 -117 4 -162 30v-148zM223 415v-58c45 -24 67 -30 162 -30h53c103 0 184 -57 184 -165c0 -109 -81 -162 -184 -162h-318v518h399v-103h-296z" />
    <glyph glyph-name="afii10068" unicode="&#x433;" horiz-adv-x="563" 
d="M498 415h-276v-415h-102v518h378v-103z" />
    <glyph glyph-name="afii10069" unicode="&#x434;" horiz-adv-x="736" 
d="M262 104h247v311h-133c-24 -109 -57 -235 -114 -311zM676 -115h-104v115h-428v-115h-104v219h100c100 124 110 227 128 311h-82l-46 103h471v-414h65v-219z" />
    <glyph glyph-name="afii10072" unicode="&#x436;" horiz-adv-x="1019" 
d="M455 308v210h109v-210c36 0 63 6 79 21l146 189h132l-190 -243l87 -118c31 -43 69 -52 95 -52h26v-105h-35c-54 0 -100 0 -155 80l-91 132c-27 -10 -56 -13 -94 -13v-199h-109v199c-38 0 -67 3 -94 13l-91 -132c-55 -80 -101 -80 -155 -80h-35v105h26c26 0 63 9 95 52
l87 118l-190 243h132l146 -189c16 -15 43 -21 79 -21z" />
    <glyph glyph-name="afii10073" unicode="&#x437;" horiz-adv-x="614" 
d="M162 394l-58 89c69 42 149 52 196 52c139 0 218 -54 218 -159c0 -30 -10 -70 -35 -93c41 -23 61 -74 61 -121c0 -135 -125 -179 -244 -179c-89 0 -193 36 -250 93l59 89c59 -58 129 -77 191 -77c80 0 141 16 141 76c0 49 -40 60 -81 60h-109v103h109c36 0 52 25 52 49
c0 39 -42 55 -112 55c-27 0 -90 -10 -138 -37z" />
    <glyph glyph-name="afii10074" unicode="&#x438;" horiz-adv-x="746" 
d="M222 146l302 372h102v-518h-102v374l-302 -374h-102v518h102v-372z" />
    <glyph glyph-name="afii10075" unicode="&#x439;" horiz-adv-x="746" 
d="M524 518l-302 -372v372h-102v-518h102l302 374v-374h102v518h-102zM383 641c65 0 77 43 77 75h115c-7 -62 -49 -145 -192 -145s-185 83 -192 145h115c0 -32 12 -75 77 -75z" />
    <glyph glyph-name="afii10076" unicode="&#x43a;" horiz-adv-x="728" 
d="M229 199v-199h-109v518h109v-210h34c36 0 59 5 79 21l146 189h132l-190 -243l87 -118c31 -43 69 -53 95 -53h36v-104h-45c-54 0 -100 3 -155 82l-91 130c-27 -10 -56 -13 -84 -13h-44z" />
    <glyph glyph-name="afii10077" unicode="&#x43b;" horiz-adv-x="694" 
d="M211 415h-84l-44 103h491v-518h-109v415h-145c-12 -125 -41 -279 -118 -370c-35 -41 -83 -45 -109 -45h-53v104h27c21 0 47 11 76 57c52 83 59 155 68 254z" />
    <glyph glyph-name="afii10081" unicode="&#x43f;" horiz-adv-x="726" 
d="M606 0h-102v415h-282v-415h-102v518h486v-518z" />
    <glyph glyph-name="afii10085" unicode="&#x443;" horiz-adv-x="627" 
d="M50 49l57 89c27 -21 64 -46 95 -46c40 0 60 21 79 47c-97 49 -207 213 -251 379h115c31 -124 98 -235 197 -298c39 65 96 180 134 298h111c-52 -155 -137 -342 -229 -452c-53 -63 -88 -73 -158 -73c-42 0 -106 23 -150 56z" />
    <glyph glyph-name="_244" unicode="&#x444;" horiz-adv-x="883" 
d="M391 159v228h-105c-56 0 -101 -45 -101 -102c0 -56 45 -99 101 -99c34 0 85 -9 105 -27zM598 186c56 2 101 43 101 99c0 57 -45 102 -101 102h-105v-228c20 19 71 26 105 27zM268 92h-1c-109 0 -197 87 -197 195c0 109 88 197 197 197h124v51h102v-51h123
c109 0 197 -88 197 -197c0 -108 -88 -195 -197 -195c-42 0 -91 -1 -123 -30v-62h-102v62c-32 29 -81 30 -123 30z" />
    <glyph glyph-name="afii10088" unicode="&#x446;" horiz-adv-x="766" 
d="M605 109h101l-120 -266h-106l70 157h-430v518h101v-409h282v409h102v-409z" />
    <glyph glyph-name="afii10089" unicode="&#x447;" horiz-adv-x="646" 
d="M424 518h102v-518h-102v190c-41 -16 -79 -22 -133 -22c-142 0 -231 44 -231 173c0 60 4 120 20 177h102c-15 -52 -20 -100 -20 -150c0 -75 38 -98 132 -98c47 0 71 6 130 24v224z" />
    <glyph glyph-name="afii10090" unicode="&#x448;" horiz-adv-x="905" 
d="M683 518h102v-518h-665v518h101v-409h176v390h107v-390h179v409z" />
    <glyph glyph-name="afii10091" unicode="&#x449;" horiz-adv-x="946" 
d="M785 109h101l-120 -266h-106l70 157h-610v518h101v-409h176v391h107v-391h179v409h102v-409z" />
    <glyph glyph-name="afii10092" unicode="&#x44a;" horiz-adv-x="774" 
d="M320 104h215c42 0 81 10 81 60c0 49 -40 58 -81 58h-53c-60 0 -117 4 -162 30v-148zM320 518v-163c45 -24 67 -30 162 -30h53c103 0 184 -55 184 -163c0 -109 -81 -162 -184 -162h-318v415h-157v103h260z" />
    <glyph glyph-name="afii10093" unicode="&#x44b;" horiz-adv-x="898" 
d="M223 252v-148h185c42 0 81 10 81 60c0 49 -40 58 -81 58h-23c-60 0 -117 4 -162 30zM778 0h-102v518h102v-518zM223 518v-163c45 -24 67 -30 162 -30h23c103 0 184 -55 184 -163c0 -109 -81 -162 -184 -162h-288v518h103z" />
    <glyph glyph-name="afii10094" unicode="&#x44c;" horiz-adv-x="677" 
d="M223 104h215c42 0 81 10 81 60c0 49 -40 58 -81 58h-53c-60 0 -117 4 -162 30v-148zM223 518v-163c45 -24 67 -30 162 -30h53c103 0 184 -55 184 -163c0 -109 -81 -162 -184 -162h-318v518h103z" />
    <glyph glyph-name="afii10095" unicode="&#x44d;" horiz-adv-x="648" 
d="M60 58l60 86c40 -36 97 -56 151 -56c79 0 157 34 186 107c-35 16 -62 21 -142 21h-93v103h93c55 0 107 -4 150 -25c-17 93 -104 137 -193 137c-49 0 -100 -14 -139 -41l-69 80c57 43 132 65 208 65c155 0 306 -98 306 -274c0 -175 -148 -277 -305 -277
c-79 0 -156 25 -213 74z" />
    <glyph glyph-name="afii10096" unicode="&#x44e;" horiz-adv-x="941" 
d="M774 264c0 116 -94 166 -183 166c-92 0 -184 -53 -184 -171c0 -117 94 -170 184 -170s183 62 183 175zM871 264c0 -176 -136 -280 -285 -280c-136 0 -259 85 -281 233h-83v-217h-102v518h102v-196h86c29 137 149 213 279 213c148 0 284 -91 284 -271z" />
    <glyph glyph-name="afii10097" unicode="&#x44f;" horiz-adv-x="695" 
d="M470 262v152l-175 1c-44 0 -95 -5 -95 -62c0 -56 51 -61 95 -61c73 0 130 -4 175 -30zM329 185l-59 -103c-44 -77 -91 -82 -155 -82h-45v105h53c19 0 40 7 68 52l21 33c-87 19 -132 78 -132 160c0 98 74 168 178 168h317v-518h-105v152c-44 23 -68 30 -141 33z" />
    <glyph glyph-name="uni0401" unicode="&#x401;" horiz-adv-x="744" 
d="M219 109v190c45 24 93 29 141 29h163v111h-163c-49 0 -96 -3 -141 -29v226h416v110h-525v-746h569v109h-460zM210 883c0 33 26 60 59 60s60 -27 60 -60s-27 -59 -60 -59s-59 26 -59 59zM431 883c0 33 26 60 59 60s60 -27 60 -60s-27 -59 -60 -59s-59 26 -59 59z" />
    <glyph glyph-name="uni0451" unicode="&#x451;" horiz-adv-x="622" 
d="M222 104v82c45 24 67 30 162 30h76v103h-76c-60 0 -117 -4 -162 -30v126h306v103h-408v-518h427v104h-325zM163 650c0 33 26 60 59 60s60 -27 60 -60s-27 -59 -60 -59s-59 26 -59 59zM384 650c0 33 26 60 59 60s60 -27 60 -60s-27 -59 -60 -59s-59 26 -59 59z" />
    <glyph glyph-name="uni0410" unicode="&#x410;" horiz-adv-x="811" 
d="M343 667l-41 92h120l359 -759h-122l-49 109h-227c-136 0 -209 -43 -226 -74l-19 -35h-118zM423 219h138l-163 315l-165 -357c27 23 88 42 190 42z" />
    <glyph glyph-name="uni0430" unicode="&#x430;" horiz-adv-x="675" 
d="M418 172h14l-101 192l-123 -237c33 17 103 45 210 45zM278 465l-34 65h111l280 -530h-113l-41 78h-62c-128 0 -261 -50 -278 -72l-3 -6h-108z" />
    <glyph glyph-name="uni0412" unicode="&#x412;" horiz-adv-x="814" 
d="M218 636v-228c45 26 93 30 142 30h128c67 0 111 34 111 103c0 71 -46 95 -111 95h-270zM218 297v-188h281c61 0 137 34 137 109c0 87 -76 109 -148 109h-128c-48 0 -97 -6 -142 -30zM744 204c0 -148 -132 -204 -256 -204h-378v746h378c126 0 220 -73 220 -204
c0 -64 -23 -119 -67 -147c52 -24 103 -88 103 -191z" />
    <glyph glyph-name="uni0432" unicode="&#x432;" horiz-adv-x="702" 
d="M223 415v-118c45 26 102 30 162 30h53c36 0 52 15 52 45c0 28 -21 43 -52 43h-215zM223 192v-88h215c42 0 81 10 81 60c0 38 -24 58 -81 58h-53c-95 0 -117 -6 -162 -30zM622 162c0 -102 -70 -162 -184 -162h-318v518h318c85 0 157 -59 157 -146c0 -34 -9 -66 -34 -89
c39 -23 61 -70 61 -121z" />
    <glyph glyph-name="uni0415" unicode="&#x415;" horiz-adv-x="744" 
d="M219 299v-190h460v-109h-569v746h525v-110h-416v-226c45 26 92 29 141 29h163v-111h-163c-48 0 -96 -5 -141 -29z" />
    <glyph glyph-name="uni0435" unicode="&#x435;" horiz-adv-x="622" 
d="M222 186v-82h325v-104h-427v518h408v-103h-306v-126c45 26 102 30 162 30h76v-103h-76c-95 0 -117 -6 -162 -30z" />
    <glyph glyph-name="uni041C" unicode="&#x41c;" horiz-adv-x="986" 
d="M747 513l-255 -305l-253 305v-513h-107v641l-87 105h141l305 -366l309 366h141l-87 -105v-641h-107v513z" />
    <glyph glyph-name="uni043C" unicode="&#x43c;" horiz-adv-x="804" 
d="M749 518l-51 -83v-435h-113v303l-183 -244l-183 244v-303h-113v435l-51 83h126l221 -293l221 293h126z" />
    <glyph glyph-name="uni041D" unicode="&#x41d;" horiz-adv-x="876" 
d="M218 330v-330h-108v746h108v-306c30 15 63 20 95 20c44 0 175 -22 243 -22c31 0 69 5 101 19v289h109v-746h-109v347c-32 -14 -70 -19 -101 -19c-68 0 -199 22 -243 22c-32 0 -65 -5 -95 -20z" />
    <glyph glyph-name="uni043D" unicode="&#x43d;" horiz-adv-x="726" 
d="M222 206v-206h-102v518h102v-207c19 9 40 13 61 13c43 0 104 -15 156 -15c22 0 44 3 65 13v196h102v-518h-102v217c-20 -10 -40 -13 -61 -13c-54 0 -105 14 -156 14c-23 0 -44 -3 -65 -12z" />
    <glyph glyph-name="uni041E" unicode="&#x41e;" horiz-adv-x="923" 
d="M755 378c0 164 -135 280 -294 280c-166 0 -294 -119 -294 -287c0 -161 139 -279 295 -279c160 0 293 124 293 286zM863 372c0 -220 -186 -389 -402 -389c-226 0 -401 176 -401 401c0 220 188 384 402 384c221 0 401 -173 401 -396z" />
    <glyph glyph-name="uni043E" unicode="&#x43e;" horiz-adv-x="752" 
d="M574 263c0 116 -100 166 -198 166c-100 0 -198 -53 -198 -170s100 -170 199 -170c98 0 197 62 197 174zM682 264c0 -176 -150 -280 -307 -280s-305 102 -305 277c0 176 151 274 306 274c156 0 306 -91 306 -271z" />
    <glyph glyph-name="uni0420" unicode="&#x420;" horiz-adv-x="761" 
d="M361 427h132c71 0 110 34 110 106c0 75 -38 103 -110 103h-274v-239c45 26 93 30 142 30zM219 0h-109v746h383c132 0 218 -80 218 -213c0 -132 -86 -216 -218 -216h-132c-48 0 -97 -6 -142 -30v-287z" />
    <glyph glyph-name="uni0440" unicode="&#x440;" horiz-adv-x="678" 
d="M222 415v-155c45 26 103 30 163 30h46c49 0 82 10 82 65c0 50 -40 60 -82 60h-209zM222 0h-102v518h329c100 0 169 -64 169 -164c0 -102 -71 -167 -187 -167h-46c-95 0 -118 -6 -163 -30v-157z" />
    <glyph glyph-name="uni0421" unicode="&#x421;" horiz-adv-x="816" 
d="M749 650l-70 -82c-54 56 -133 90 -218 90c-166 0 -294 -119 -294 -287c0 -161 139 -279 295 -279c97 0 183 45 237 117l67 -91c-75 -84 -185 -135 -305 -135c-226 0 -401 176 -401 401c0 220 188 384 402 384c112 0 214 -45 287 -118z" />
    <glyph glyph-name="uni0441" unicode="&#x441;" horiz-adv-x="648" 
d="M528 144l60 -86c-57 -49 -134 -74 -213 -74c-157 0 -305 102 -305 277c0 176 151 274 306 274c76 0 144 -18 201 -61l-69 -80c-39 27 -83 37 -132 37c-100 0 -197 -55 -197 -172s99 -171 198 -171c54 0 111 20 151 56z" />
    <glyph glyph-name="uni0422" unicode="&#x422;" horiz-adv-x="695" 
d="M665 636h-263v-636h-106v636h-266v110h635v-110z" />
    <glyph glyph-name="uni0442" unicode="&#x442;" horiz-adv-x="566" 
d="M526 415h-195v-415h-103v415h-188v103h486v-103z" />
    <glyph glyph-name="uni0425" unicode="&#x425;" horiz-adv-x="823" 
d="M783 0h-138l-229 314l-237 -314h-139l306 405l-246 341h132l184 -249l187 249h135l-253 -341z" />
    <glyph glyph-name="uni0445" unicode="&#x445;" horiz-adv-x="676" 
d="M339 186l-148 -186h-141l220 274l-191 244h141l122 -156l125 156h137l-194 -243l216 -275h-140z" />
    <glyph glyph-name="uni0404" unicode="&#x404;" horiz-adv-x="816" 
d="M739 650l-70 -82c-54 56 -133 90 -218 90c-182 0 -272 -100 -291 -246c44 25 92 29 140 29h240v-111h-240c-45 0 -92 -5 -134 -26c32 -126 153 -212 286 -212c97 0 183 45 237 117l67 -91c-75 -84 -185 -135 -305 -135c-226 0 -401 176 -401 401c0 220 148 384 402 384
c112 0 214 -45 287 -118z" />
    <glyph glyph-name="uni0454" unicode="&#x454;" horiz-adv-x="618" 
d="M508 144l60 -86c-57 -49 -134 -74 -213 -74c-157 0 -305 102 -305 277c0 176 151 274 306 274c76 0 151 -22 208 -65l-69 -80c-39 27 -90 41 -139 41c-89 0 -176 -44 -193 -137c43 21 95 25 150 25h93v-103h-93c-80 0 -107 -5 -142 -21c29 -73 107 -107 186 -107
c54 0 111 20 151 56z" />
    <glyph glyph-name="uni0405" unicode="&#x405;" horiz-adv-x="740" 
d="M690 227c0 -150 -144 -244 -333 -244c-114 0 -232 56 -307 153l78 73c39 -47 112 -117 229 -117c110 0 221 42 221 135c0 114 -113 114 -221 114c-178 0 -275 66 -275 193c0 121 115 234 275 234c113 0 211 -32 300 -118l-68 -80c-80 65 -137 88 -232 88
c-84 0 -154 -58 -154 -123c0 -45 32 -86 159 -86c261 0 328 -81 328 -222z" />
    <glyph glyph-name="uni0455" unicode="&#x455;" horiz-adv-x="617" 
d="M517 470l-69 -80c-40 33 -94 45 -154 45c-50 0 -105 -26 -105 -56c0 -31 12 -52 113 -52c221 0 255 -75 255 -159c0 -124 -114 -184 -262 -184c-90 0 -178 43 -235 110l74 75c31 -33 69 -85 161 -85c94 0 160 30 160 84c0 47 -52 57 -160 57c-124 0 -214 41 -214 154
c0 94 99 156 214 156c75 0 146 -13 222 -65z" />
    <glyph glyph-name="uni0456" unicode="&#x456;" horiz-adv-x="342" 
d="M222 0h-102v518h102v-518z" />
    <glyph glyph-name="uni0406" unicode="&#x406;" horiz-adv-x="327" 
d="M217 0h-107v746h107v-746z" />
    <glyph glyph-name="uni040E" unicode="&#x40e;" horiz-adv-x="790" 
d="M149 746c59 -264 164 -398 274 -528c83 140 159 359 202 528h125c-59 -223 -141 -453 -274 -648c-60 -87 -125 -108 -196 -108c-50 0 -126 21 -153 48l42 95c32 -26 58 -37 111 -37c35 0 63 12 79 41c-144 131 -266 318 -329 609h119zM404 871c65 0 77 43 77 75h115
c-7 -62 -49 -145 -192 -145s-185 83 -192 145h115c0 -32 12 -75 77 -75z" />
    <glyph glyph-name="uni045E" unicode="&#x45e;" horiz-adv-x="647" 
d="M60 49l57 89c27 -21 64 -46 95 -46c40 0 60 21 79 47c-97 49 -207 213 -251 379h115c31 -124 98 -235 197 -298c39 65 96 180 134 298h111c-52 -155 -137 -342 -229 -452c-53 -63 -88 -73 -158 -73c-42 0 -106 23 -150 56zM319 641c65 0 77 43 77 75h115
c-7 -62 -49 -145 -192 -145s-185 83 -192 145h115c0 -32 12 -75 77 -75z" />
    <glyph glyph-name="uni0408" unicode="&#x408;" horiz-adv-x="675" 
d="M565 746v-451c0 -230 -164 -312 -291 -312c-88 0 -191 33 -254 88l55 96s63 -76 200 -76c183 0 182 207 182 207v338h-159l-48 110h315z" />
    <glyph glyph-name="uni0458" unicode="&#x458;" horiz-adv-x="545" 
d="M30 23l54 94c18 -17 53 -29 110 -29c66 0 129 31 129 106v221h-124l-46 103h272v-324c0 -140 -108 -210 -239 -210c-44 0 -121 16 -156 39z" />
    <glyph glyph-name="uni0407" unicode="&#x407;" horiz-adv-x="360" 
d="M126 0h107v746h-107v-746zM10 883c0 33 26 60 59 60s60 -27 60 -60s-27 -59 -60 -59s-59 26 -59 59zM231 883c0 33 26 60 59 60s60 -27 60 -60s-27 -59 -60 -59s-59 26 -59 59z" />
    <glyph glyph-name="uni0490" unicode="&#x490;" horiz-adv-x="690" 
d="M526 835h109v-199h-416v-636h-109v746h416v89z" />
    <glyph glyph-name="uni0491" unicode="&#x491;" horiz-adv-x="563" 
d="M389 614h109v-199h-276v-415h-102v518h269v96z" />
    <glyph glyph-name="uni0457" unicode="&#x457;" horiz-adv-x="380" 
d="M138 0h102v518h-102v-518zM20 650c0 33 26 60 59 60s60 -27 60 -60s-27 -59 -60 -59s-59 26 -59 59zM241 650c0 33 26 60 59 60s60 -27 60 -60s-27 -59 -60 -59s-59 26 -59 59z" />
    <glyph glyph-name="uni0403" unicode="&#x403;" horiz-adv-x="690" 
d="M489 935l-106 -122h-91l80 122h117zM219 636v-636h-109v746h525v-110h-416z" />
    <glyph glyph-name="uni0453" unicode="&#x453;" horiz-adv-x="563" 
d="M424 702l-106 -122h-91l80 122h117zM498 415h-276v-415h-102v518h378v-103z" />
    <glyph glyph-name="uni040C" unicode="&#x40c;" horiz-adv-x="835" 
d="M505 935l-106 -122h-91l80 122h117zM219 328v-328h-109v746h109v-307h50c47 0 96 5 140 29l189 278h131l-245 -351l134 -201c50 -75 89 -84 123 -84c8 0 16 1 24 1v-111c-87 0 -150 -12 -232 118l-143 229c-35 -15 -72 -19 -108 -19h-63z" />
    <glyph glyph-name="uni045C" unicode="&#x45c;" horiz-adv-x="728" 
d="M473 702l-106 -122h-91l80 122h117zM229 199v-199h-109v518h109v-210h34c36 0 59 5 79 21l146 189h132l-190 -243l87 -118c31 -43 69 -53 95 -53h36v-104h-45c-54 0 -100 3 -155 82l-91 130c-27 -10 -56 -13 -84 -13h-44z" />
    <glyph glyph-name="uni0409" unicode="&#x409;" horiz-adv-x="1243" 
d="M937 327h-98c-49 0 -97 4 -142 30v-248h251c61 0 137 24 137 109c0 87 -76 109 -148 109zM937 0h-349v636h-185c-19 -194 -64 -423 -184 -566c-54 -64 -129 -70 -169 -70h-20v109h20c34 0 75 7 130 95c80 128 102 279 118 432h-86l-47 110h532v-278
c45 -24 94 -30 142 -30h98c161 0 261 -72 261 -220c0 -178 -143 -218 -261 -218z" />
    <glyph glyph-name="uni0402" unicode="&#x402;" horiz-adv-x="820" 
d="M184 636h-154v110h415v-110h-152v-177c50 24 103 42 190 42c191 0 292 -70 292 -278c0 -114 -91 -223 -191 -223h-79v109h46c108 0 115 102 115 144c0 107 -70 141 -187 141c-58 0 -113 -19 -186 -45v-349h-109v636z" />
    <glyph glyph-name="uni0452" unicode="&#x452;" horiz-adv-x="820" 
d="M293 0h-109v636h-154v110h415v-110h-152v-177c50 24 103 42 190 42c191 0 292 -70 292 -278c0 -37 -7 -158 -20 -223h-109c13 83 20 170 20 253c0 107 -70 141 -187 141c-58 0 -113 -19 -186 -45v-349z" />
    <glyph glyph-name="uni040F" unicode="&#x40f;" horiz-adv-x="836" 
d="M480 -174h-108v174h-262v746h108v-636h399v636h109v-746h-246v-174z" />
    <glyph glyph-name="uni040A" unicode="&#x40a;" horiz-adv-x="1310" 
d="M655 456l2 290h109v-279c44 -23 92 -29 140 -29h98c161 0 261 -72 261 -220c0 -178 -143 -218 -261 -218h-349v346c-32 -14 -69 -18 -99 -18c-68 0 -199 22 -243 22c-32 0 -65 -5 -95 -20v-330h-108v746h108v-306c30 15 63 20 95 20c44 0 175 -22 243 -22
c30 0 67 4 99 18zM1004 327h-98c-49 0 -96 4 -140 29v-247h249c61 0 137 24 137 109c0 87 -76 109 -148 109z" />
    <glyph glyph-name="uni045F" unicode="&#x45f;" horiz-adv-x="726" 
d="M418 -154h-102v154h-196v518h102v-415h282v415h102v-518h-188v-154z" />
    <glyph glyph-name="uni2116" unicode="&#x2116;" horiz-adv-x="1128" 
d="M1032 397c0 31 -26 58 -58 58s-57 -27 -57 -58c0 -32 26 -57 57 -57s58 25 58 57zM1096 123h-239v68h239v-68zM1098 398c0 -69 -55 -124 -123 -124c-69 0 -124 55 -124 123c0 69 55 124 123 124c69 0 124 -55 124 -123zM132 641l-87 105h141l479 -570v570h249v-95h-139
v-651h-108l-428 513v-513h-107v641z" />
    <glyph glyph-name="uni040B" unicode="&#x40b;" horiz-adv-x="701" 
d="M282 0h-102v415h-140v103h386v-103h-144v-87c41 16 79 22 133 22c142 0 231 -44 231 -173c0 -60 -23 -177 -194 -177v92c62 0 92 35 92 85c0 56 -38 71 -132 71c-47 0 -71 -6 -130 -24v-224z" />
    <glyph glyph-name="uni045B" unicode="&#x45b;" horiz-adv-x="701" 
d="M282 0h-102v415h-140v103h386v-103h-144v-87c41 16 79 22 133 22c142 0 231 -44 231 -173c0 -60 -4 -120 -20 -177h-102c15 52 20 100 20 150c0 75 -38 98 -132 98c-47 0 -71 -6 -130 -24v-224z" />
    <glyph glyph-name="uni0459" unicode="&#x459;" horiz-adv-x="978" 
d="M544 252v-148h185c42 0 81 10 81 60c0 49 -40 58 -81 58h-23c-60 0 -117 4 -162 30zM544 518v-163c45 -24 67 -30 162 -30h23c103 0 184 -55 184 -163c0 -109 -81 -162 -184 -162h-294v415h-125c-12 -125 -41 -279 -118 -370c-35 -41 -83 -45 -109 -45h-53v104h27
c21 0 47 11 76 57c52 83 59 155 68 254h-84l-44 103h471z" />
    <glyph glyph-name="uni045A" unicode="&#x45a;" horiz-adv-x="1031" 
d="M607 252v-148h185c42 0 81 10 81 60c0 49 -40 58 -81 58h-23c-60 0 -117 4 -162 30zM607 518v-163c45 -24 67 -30 162 -30h23c103 0 184 -55 184 -163c0 -109 -81 -162 -184 -162h-288v217c-20 -10 -40 -13 -61 -13c-54 0 -105 14 -156 14c-23 0 -44 -3 -65 -12v-206
h-102v518h102v-207c19 9 40 13 61 13c43 0 104 -15 156 -15c22 0 44 3 65 13v196h103z" />
    <glyph glyph-name="uni20BD" unicode="&#x20bd;" horiz-adv-x="840" 
d="M298 427h274c71 0 110 34 110 106c0 75 -38 104 -110 104h-274v-210zM110 317v110h79v319h383c132 0 218 -80 218 -213c0 -132 -86 -216 -218 -216h-274v-70h256v-110h-256v-137h-109v137h-79v110h79v70h-79z" />
    <glyph glyph-name="_193" unicode="&#x411;" horiz-adv-x="794" 
d="M218 636v-168c45 -24 94 -30 142 -30h128c148 0 256 -69 256 -234c0 -148 -132 -204 -256 -204h-378v746h504v-110h-396zM218 357v-247h281c61 0 137 23 137 108c0 87 -76 109 -148 109h-128c-49 0 -97 4 -142 30z" />
    </font>
</defs>
</svg>
